<svg width="40" height="40" viewBox="0 0 40 40" fill="none" xmlns="http://www.w3.org/2000/svg">
<path d="M38.3333 5.00001C36.7373 6.1258 34.9702 6.98685 33.1 7.55001C32.0962 6.39586 30.7622 5.57783 29.2784 5.20655C27.7946 4.83527 26.2325 4.92866 24.8035 5.47409C23.3745 6.01952 22.1474 6.99067 21.2883 8.2562C20.4292 9.52173 19.9795 11.0206 20 12.55V14.2167C17.0711 14.2926 14.1688 13.643 11.5517 12.3257C8.93459 11.0085 6.68388 9.0644 5.00002 6.66667C5.00002 6.66667 -1.66665 21.6667 13.3334 28.3333C9.9009 30.6633 5.81195 31.8316 1.66669 31.6667C16.6667 40 35 31.6667 35 12.5C34.9985 12.0358 34.9538 11.5727 34.8667 11.1167C36.5677 9.43916 37.7681 7.32119 38.3333 5.00001V5.00001Z" stroke="white" stroke-width="2.5" stroke-linecap="round" stroke-linejoin="round"/>
</svg>
