<svg width="1920" height="183" viewBox="0 0 1920 183" fill="none" xmlns="http://www.w3.org/2000/svg">
<path fill-rule="evenodd" clip-rule="evenodd" d="M0 61.1231H46.4C91.2 61.1231 182.4 61.1231 273.6 89.9108C366.4 118.698 457.6 176.274 548.8 176.274C640 176.274 731.2 118.698 822.4 109.103C913.6 99.5067 1006.4 137.89 1097.6 128.294C1188.8 118.698 1280 61.1231 1371.2 51.5272C1462.4 41.9313 1553.6 80.3149 1646.4 89.9108C1737.6 99.5067 1828.8 80.3149 1873.6 70.719L1920 61.1231V349H1873.6C1828.8 349 1737.6 349 1646.4 349C1553.6 349 1462.4 349 1371.2 349C1280 349 1188.8 349 1097.6 349C1006.4 349 913.6 349 822.4 349C731.2 349 640 349 548.8 349C457.6 349 366.4 349 273.6 349C182.4 349 91.2 349 46.4 349H0V61.1231Z" fill="url(#paint0_linear)"/>
<path fill-rule="evenodd" clip-rule="evenodd" d="M0 169.74L80 149.74C160 130.74 320 92.7401 480 53.7401C640 15.7401 800 -22.2599 960 15.7401C1120 53.7401 1280 169.74 1440 188.74C1600 207.74 1760 130.74 1840 92.7401L1920 53.7401V399.74H1840C1760 399.74 1600 399.74 1440 399.74C1280 399.74 1120 399.74 960 399.74C800 399.74 640 399.74 480 399.74C320 399.74 160 399.74 80 399.74H0V169.74Z" fill="url(#paint1_linear)"/>
<defs>
<linearGradient id="paint0_linear" x1="0" y1="199.5" x2="1920" y2="199.5" gradientUnits="userSpaceOnUse">
<stop stop-color="#4776E6" stop-opacity="0.29"/>
<stop offset="1" stop-color="#8E54E9" stop-opacity="0.29"/>
</linearGradient>
<linearGradient id="paint1_linear" x1="0" y1="199.87" x2="1920" y2="199.87" gradientUnits="userSpaceOnUse">
<stop stop-color="#4776E6"/>
<stop offset="1" stop-color="#8E54E9"/>
</linearGradient>
</defs>
</svg>
